<svg width="50" height="50" viewBox="0 0 50 50" fill="none" xmlns="http://www.w3.org/2000/svg">
<path d="M37.5 4.99989C41.6421 4.99989 45 8.35775 45 12.4999V37.5001C45 41.6423 41.6421 45.0001 37.5 45.0001H12.5C8.35786 45.0001 5 41.6423 5 37.5001L5 12.4999C5 8.35775 8.35787 4.99989 12.5 4.99989L37.5 4.99989Z" stroke="#2A2AB2" stroke-width="2" stroke-linecap="round" stroke-linejoin="round"/>
<path d="M21.26 25.24C22.2333 25.36 22.9533 25.6733 23.42 26.18C23.9 26.6733 24.14 27.2867 24.14 28.02C24.14 28.7533 23.8667 29.4467 23.32 30.1C22.7867 30.7533 22.1 31.26 21.26 31.62C20.8867 31.7667 20.3933 31.8733 19.78 31.94C19.18 32.0067 18.56 32.04 17.92 32.04C16.8533 32.04 15.76 31.94 14.64 31.74C14.44 31.7 14.2267 31.6 14 31.44C13.7867 31.28 13.68 31.0467 13.68 30.74C13.6667 29.5133 13.62 27.8067 13.54 25.62L13.52 24.52C13.4667 22.8133 13.44 21.4733 13.44 20.5C13.44 20.3267 13.54 20.1267 13.74 19.9C13.9533 19.66 14.2067 19.5267 14.5 19.5C14.6733 19.5 14.84 19.4933 15 19.48C16.5067 19.3333 17.5133 19.26 18.02 19.26C19.02 19.26 19.9 19.36 20.66 19.56C21.4333 19.7467 22.0733 20.0933 22.58 20.6C22.7667 20.8133 22.92 21.0867 23.04 21.42C23.16 21.74 23.22 22.0533 23.22 22.36C23.2333 23.0133 23.06 23.6133 22.7 24.16C22.3533 24.7067 21.8733 25.0667 21.26 25.24ZM18.14 20.96C17.6867 20.96 17.2133 20.9867 16.72 21.04C16.24 21.0933 15.8333 21.16 15.5 21.24L15.62 25.02L16.34 25C17.5 24.88 18.3533 24.78 18.9 24.7C19.2467 24.62 19.5867 24.4667 19.92 24.24C20.2533 24 20.5267 23.7533 20.74 23.5C20.9667 23.2333 21.08 23.0333 21.08 22.9C21.08 22.7 21.04 22.5 20.96 22.3C20.88 22.0867 20.7933 21.9333 20.7 21.84C20.34 21.4933 19.9733 21.26 19.6 21.14C19.2267 21.02 18.74 20.96 18.14 20.96ZM15.68 30.28C16.36 30.3733 17.0067 30.42 17.62 30.42C18.9667 30.42 20.0267 30.2467 20.8 29.9C21.5867 29.54 21.98 28.86 21.98 27.86C21.98 27.46 21.68 27.1267 21.08 26.86C20.48 26.5933 19.8333 26.46 19.14 26.46C18.6733 26.46 18.08 26.5133 17.36 26.62C16.7867 26.7 16.2267 26.7533 15.68 26.78C15.7067 27.58 15.72 28.0867 15.72 28.3C15.72 28.7133 15.7133 29.0267 15.7 29.24L15.68 30.28ZM26.9897 31.64C26.403 31.5867 26.0097 31.4467 25.8097 31.22C25.6097 30.98 25.5097 30.7333 25.5097 30.48C25.5097 30.32 25.543 30.14 25.6097 29.94C25.6764 29.74 25.743 29.6 25.8097 29.52C26.4364 28.7467 27.6097 27.3867 29.3297 25.44C31.0497 23.4933 32.203 22.1933 32.7897 21.54L32.0097 21.5C31.303 21.46 30.7097 21.44 30.2297 21.44C30.0564 21.44 29.6164 21.4733 28.9097 21.54C28.4697 21.6067 28.0697 21.64 27.7097 21.64C27.1897 21.64 26.8097 21.5933 26.5697 21.5C26.343 21.3933 26.203 21.2733 26.1497 21.14C26.1097 21.0067 26.0897 20.82 26.0897 20.58C26.0897 20.4067 26.1564 20.2333 26.2897 20.06C26.4364 19.8733 26.6097 19.7667 26.8097 19.74C27.343 19.6733 28.0564 19.6133 28.9497 19.56C29.843 19.4933 30.5697 19.46 31.1297 19.46C32.823 19.46 34.0164 19.5467 34.7097 19.72C34.883 19.7733 35.0297 19.9067 35.1497 20.12C35.2697 20.3333 35.3297 20.5 35.3297 20.62C35.3297 20.78 35.303 20.9467 35.2497 21.12C35.2097 21.2933 35.1497 21.44 35.0697 21.56C34.8964 21.8667 34.4964 22.4267 33.8697 23.24C33.243 24.04 32.5764 24.8467 31.8697 25.66C31.123 26.54 30.3564 27.4133 29.5697 28.28C28.7964 29.1467 28.2964 29.7 28.0697 29.94C28.443 29.9267 29.0164 29.8933 29.7897 29.84C31.043 29.76 31.983 29.72 32.6097 29.72C33.103 29.72 33.6497 29.7533 34.2497 29.82C34.863 29.8867 35.323 30.02 35.6297 30.22C35.723 30.2733 35.8097 30.4267 35.8897 30.68C35.983 30.9333 36.0297 31.14 36.0297 31.3C36.0297 31.4733 35.943 31.6267 35.7697 31.76C35.6097 31.8933 35.383 31.96 35.0897 31.96C35.063 31.96 34.7697 31.9333 34.2097 31.88C33.0497 31.7467 32.283 31.68 31.9097 31.68L30.4897 31.7C29.8497 31.7267 29.363 31.74 29.0297 31.74C28.2164 31.74 27.5364 31.7067 26.9897 31.64Z" fill="#7878FF"/>
</svg>
